# xmcd
#
# Track frame offsets:
#	150
#	11557
#	31082
#	46450
#	68407
#	80885
#	97390
#	107062
#	121620
#	133115
#
# Disc length: 1999 seconds
#
# Revision: 0
# Processed by: cddbd v1.5.2PL0 Copyright (c) Steve Scherf et al.
# Submitted via: EasyCDDAExtractor 10.2.0.1
#
DISCID=8007cd0a
DTITLE=Tommy Smith - Father, If You're Listening
DYEAR=1999
DGENRE=Gospel
TTITLE0=Now I Know Where I'm Going
TTITLE1=Hear The My Children
TTITLE2=Father, If You're Listening
TTITLE3=If I Came Back Today
TTITLE4=Blessed Is He
TTITLE5=A Man Called Jesus
TTITLE6=Preacher Man
TTITLE7=Bring Jesus Back To School
TTITLE8=The Missionary
TTITLE9=I'll Speak Out For You Jesus
EXTD=
EXTT0=
EXTT1=
EXTT2=
EXTT3=
EXTT4=
EXTT5=
EXTT6=
EXTT7=
EXTT8=
EXTT9=
PLAYORDER=
